<svg width="28" height="28" viewBox="0 0 28 28" fill="none" xmlns="http://www.w3.org/2000/svg">
<path d="M4.30769 0C1.92862 0 0 1.92862 0 4.30769V23.6923C0 26.0714 1.92862 28 4.30769 28H9.33388C9.60015 28 9.80057 27.9903 9.93512 27.9724C10.0917 27.9414 10.2329 27.8589 10.3359 27.7386C10.4691 27.6002 10.5363 27.3996 10.5363 27.1368L10.5266 25.5512C10.521 24.7709 10.5181 24.1539 10.5181 23.6974L10.0977 23.7693C9.83143 23.8178 9.49505 23.8385 9.08723 23.8329C8.66215 23.8252 8.23846 23.7831 7.82035 23.7071C7.37522 23.626 6.95622 23.441 6.59826 23.1676C6.22333 22.8876 5.94372 22.5016 5.79661 22.0609L5.61441 21.6458C5.46083 21.3185 5.26794 21.0105 5.03983 20.7287C4.77914 20.3925 4.51422 20.1656 4.24656 20.0453L4.12043 19.9554C4.03248 19.8932 3.95245 19.8207 3.88216 19.7396C3.81501 19.6642 3.75977 19.5793 3.71819 19.4878C3.68178 19.4034 3.7126 19.3342 3.80929 19.2803C3.9074 19.2249 4.0826 19.1986 4.33908 19.1986L4.70345 19.254C4.9459 19.301 5.24724 19.4449 5.60461 19.6842C5.96626 19.9276 6.26839 20.2476 6.48895 20.6208C6.76922 21.1119 7.1056 21.4867 7.5008 21.7454C7.896 22.0027 8.294 22.1328 8.69482 22.1328C9.09564 22.1328 9.44181 22.1023 9.7347 22.0428C10.018 21.985 10.2932 21.894 10.5546 21.7717C10.6639 20.9694 10.961 20.3496 11.4473 19.918C10.8172 19.857 10.1926 19.7488 9.57915 19.5943C8.98045 19.4319 8.40465 19.1963 7.86517 18.8929C7.30072 18.5896 6.80215 18.1797 6.39785 17.6866C6.00961 17.2065 5.69006 16.5771 5.44062 15.7982C5.19255 15.018 5.06783 14.1175 5.06783 13.0979C5.06783 11.6467 5.54713 10.4114 6.50716 9.39044C6.05868 8.30034 6.10071 7.07605 6.63467 5.72171C6.98784 5.61244 7.51059 5.69404 8.2029 5.9638C8.89523 6.23355 9.40257 6.46456 9.72491 6.65548C10.0473 6.84915 10.3051 7.01101 10.4999 7.14244C11.6393 6.82946 12.8167 6.67211 13.9994 6.67483C15.2033 6.67483 16.3693 6.83117 17.5003 7.14244L18.1926 6.71082C18.7251 6.39522 19.2868 6.13026 19.8701 5.91953C20.5148 5.67882 21.0053 5.61382 21.3473 5.72171C21.8939 7.07743 21.9416 8.30034 21.4917 9.39182C22.4517 10.4114 22.9324 11.6467 22.9324 13.0993C22.9324 14.1188 22.8076 15.0222 22.5582 15.8066C22.3101 16.5923 21.9878 17.2218 21.5926 17.6962C21.1811 18.183 20.6805 18.589 20.1168 18.8929C19.5282 19.2166 18.9564 19.4504 18.4028 19.5943C17.7893 19.7493 17.1648 19.858 16.5347 19.9194C17.1653 20.4589 17.4821 21.3097 17.4821 22.4731V27.1368C17.4821 27.3401 17.5115 27.5048 17.5731 27.6307C17.6015 27.6913 17.6419 27.7457 17.692 27.7906C17.7135 27.8099 17.7366 27.8273 17.761 27.8426C17.7935 27.8629 17.8282 27.8795 17.8646 27.8921C17.9992 27.9391 18.1169 27.9696 18.2206 27.9806C18.3243 27.9945 18.4729 27.9986 18.6663 27.9986L18.6623 28H23.6923C26.0714 28 28 26.0714 28 23.6923V4.30769C28 1.92862 26.0714 0 23.6923 0H4.30769Z" fill="#C4C4C4"/>
</svg>
