<svg width="28" height="28" viewBox="0 0 28 28" fill="none" xmlns="http://www.w3.org/2000/svg">
<path fill-rule="evenodd" clip-rule="evenodd" d="M0 4.30769C0 1.92862 1.92865 0 4.30769 0H23.6923C26.0713 0 28 1.92862 28 4.30769V23.6923C28 26.0714 26.0713 28 23.6923 28H4.30769C1.92865 28 0 26.0714 0 23.6923V4.30769ZM21.5385 7.53846C22.4306 7.53846 23.1538 6.81523 23.1538 5.92308C23.1538 5.03092 22.4306 4.30769 21.5385 4.30769C20.6464 4.30769 19.9231 5.03092 19.9231 5.92308C19.9231 6.81523 20.6464 7.53846 21.5385 7.53846ZM14 8.61539C13.8004 8.61539 13.6034 8.62625 13.4095 8.6474C13.4075 8.64529 13.4054 8.64381 13.4033 8.64301L13.3982 8.64233C13.1275 8.6903 12.8384 8.63532 12.595 8.46582C12.1067 8.12602 11.9866 7.4548 12.3262 6.96669C12.4874 6.73507 12.7233 6.58633 12.9787 6.53013C13.3126 6.48489 13.6536 6.46154 14 6.46154C16.2187 6.46154 18.2136 7.42002 19.593 8.9455C19.64 8.99749 19.6863 9.05014 19.7318 9.10343C19.7605 9.13699 19.7889 9.17079 19.817 9.20484C20.8923 10.5079 21.5385 12.1785 21.5385 14C21.5385 18.1634 18.1633 21.5385 14 21.5385C9.83665 21.5385 6.46154 18.1634 6.46154 14C6.46154 12.4995 6.89996 11.1013 7.65572 9.92672C7.88709 9.56717 8.14804 9.22855 8.43542 8.91436L8.43989 8.91587C8.63353 8.72979 8.89645 8.61539 9.18619 8.61539C9.78091 8.61539 10.2631 9.09753 10.2631 9.69231C10.2631 9.989 10.1431 10.2577 9.94905 10.4525C9.60147 10.849 9.31134 11.297 9.09127 11.7836C8.78563 12.4595 8.61539 13.2099 8.61539 14C8.61539 16.9738 11.0261 19.3846 14 19.3846C16.9739 19.3846 19.3846 16.9738 19.3846 14C19.3846 12.6503 18.8877 11.4162 18.0673 10.4712C17.08 9.33405 15.6242 8.61539 14 8.61539Z" fill="#C4C4C4"/>
</svg>
