<svg width="28" height="28" viewBox="0 0 28 28" fill="none" xmlns="http://www.w3.org/2000/svg">
<path fill-rule="evenodd" clip-rule="evenodd" d="M4.30769 0C1.92862 0 0 1.92862 0 4.30769V23.6923C0 26.0714 1.92862 28 4.30769 28H23.6923C26.0714 28 28 26.0714 28 23.6923V4.30769C28 1.92862 26.0714 0 23.6923 0H4.30769ZM8.30547 10.4965H4.15096V23.8595H8.30547V10.4965ZM8.63796 6.26149C8.63796 7.59151 7.55644 8.66948 6.22997 8.66948C4.89647 8.66948 3.81846 7.59151 3.82195 6.26149C3.82195 5.94526 3.88423 5.63216 4.00527 5.33998C4.12628 5.04785 4.30365 4.7824 4.52723 4.55878C4.75085 4.33517 5.0163 4.15779 5.30847 4.03679C5.60061 3.91578 5.91374 3.8535 6.22997 3.8535C6.54617 3.8535 6.8593 3.91578 7.15144 4.03679C7.44361 4.15779 7.70906 4.33517 7.93268 4.55878C8.15626 4.7824 8.33363 5.04785 8.45467 5.33998C8.57568 5.63216 8.63796 5.94526 8.63796 6.26149ZM17.5525 13.818C15.393 13.818 15.0605 15.505 15.0605 17.248V23.8595H10.9095V10.4965H14.896V12.3235H14.952C15.5084 11.2735 16.8629 10.164 18.8824 10.164C23.0859 10.164 23.8629 12.9325 23.8629 16.5305V23.8595H19.712V17.36C19.712 15.8095 19.6805 13.818 17.5525 13.818Z" fill="#C4C4C4"/>
</svg>
