<svg width="28" height="28" viewBox="0 0 28 28" fill="none" xmlns="http://www.w3.org/2000/svg">
<path fill-rule="evenodd" clip-rule="evenodd" d="M4.30769 0C1.92862 0 0 1.92862 0 4.30769V23.6923C0 26.0714 1.92862 28 4.30769 28H23.6923C26.0714 28 28 26.0714 28 23.6923V4.30769C28 1.92862 26.0714 0 23.6923 0H4.30769ZM22.5707 10.2434C22.5707 10.0556 22.5707 9.86771 22.5564 9.6788C23.4174 9.05739 24.1655 8.29719 24.7692 7.43024C23.9608 7.77831 23.1042 8.00538 22.2276 8.10384C23.1491 7.56423 23.8392 6.7122 24.1686 5.70738C23.3034 6.21413 22.3556 6.56947 21.3673 6.75772C20.5606 5.90924 19.4131 5.38462 18.1418 5.38462C17.562 5.38432 16.9877 5.49662 16.452 5.71501C15.9163 5.93343 15.4295 6.2537 15.0195 6.65755C14.6095 7.06136 14.2843 7.5408 14.0625 8.06848C13.8408 8.59616 13.7268 9.1617 13.7271 9.7328C13.7271 10.0696 13.7688 10.4053 13.8367 10.7292C12.0804 10.6409 10.3626 10.1902 8.7944 9.40641C7.22621 8.62262 5.84269 7.52311 4.73336 6.17913C4.35088 6.82467 4.13278 7.56518 4.13278 8.37264C4.13203 9.08927 4.31137 9.79491 4.65485 10.4267C4.99829 11.0584 5.49517 11.5966 6.10117 11.9932C5.37781 11.9662 4.69501 11.7644 4.10646 11.4416V11.4956C4.10505 12.5002 4.45693 13.4743 5.1023 14.2523C5.74768 15.0302 6.64673 15.564 7.64652 15.7628C7.27718 15.8567 6.87932 15.9107 6.48369 15.9107C6.19651 15.9107 5.92252 15.8837 5.64964 15.8438C5.93327 16.7072 6.48356 17.4619 7.22375 18.0024C7.9639 18.543 8.85698 18.8423 9.77822 18.8588C8.21496 20.0669 6.2842 20.7213 4.29718 20.7166C3.92781 20.7166 3.58588 20.7025 3.23077 20.6626C5.18601 21.9019 7.50954 22.6154 10.0106 22.6154C18.1286 22.6154 22.5707 15.9917 22.5707 10.2434Z" fill="#C4C4C4"/>
</svg>
